<?xml version="1.0" encoding="utf-8" standalone="no"?>
<!DOCTYPE svg PUBLIC "-//W3C//DTD SVG 1.1//EN"
  "http://www.w3.org/Graphics/SVG/1.1/DTD/svg11.dtd">
<!-- Created with matplotlib (https://matplotlib.org/) -->
<svg height="432pt" version="1.1" viewBox="0 0 864 432" width="864pt" xmlns="http://www.w3.org/2000/svg" xmlns:xlink="http://www.w3.org/1999/xlink">
 <defs>
  <style type="text/css">
*{stroke-linecap:butt;stroke-linejoin:round;}
  </style>
 </defs>
 <g id="figure_1">
  <g id="patch_1">
   <path d="M 0 432 
L 864 432 
L 864 0 
L 0 0 
z
" style="fill:#ffffff;"/>
  </g>
  <g id="patch_2">
   <path d="M 108 378 
L 777.6 378 
L 777.6 51.84 
L 108 51.84 
z
" style="fill:#ffffff;"/>
  </g>
  <g id="pane3d_1">
   <g id="patch_3">
    <path d="M 196.765827 305.930135 
L 388.408851 225.963093 
L 385.218197 73.159201 
L 182.88982 145.007943 
" style="fill:#f2f2f2;opacity:0.5;stroke:#f2f2f2;stroke-linejoin:miter;"/>
   </g>
  </g>
  <g id="pane3d_2">
   <g id="patch_4">
    <path d="M 388.408851 225.963093 
L 698.852531 270.66983 
L 711.841122 113.258198 
L 385.218197 73.159201 
" style="fill:#e6e6e6;opacity:0.5;stroke:#e6e6e6;stroke-linejoin:miter;"/>
   </g>
  </g>
  <g id="pane3d_3">
   <g id="patch_5">
    <path d="M 196.765827 305.930135 
L 523.394526 357.998414 
L 698.852531 270.66983 
L 388.408851 225.963093 
" style="fill:#ececec;opacity:0.5;stroke:#ececec;stroke-linejoin:miter;"/>
   </g>
  </g>
  <g id="axis3d_1">
   <g id="line2d_1">
    <path d="M 196.765827 305.930135 
L 523.394526 357.998414 
" style="fill:none;stroke:#000000;stroke-linecap:square;stroke-width:0.8;"/>
   </g>
   <g id="text_1">
    <!-- x1 -->
    <defs>
     <path d="M 54.890625 54.6875 
L 35.109375 28.078125 
L 55.90625 0 
L 45.3125 0 
L 29.390625 21.484375 
L 13.484375 0 
L 2.875 0 
L 24.125 28.609375 
L 4.6875 54.6875 
L 15.28125 54.6875 
L 29.78125 35.203125 
L 44.28125 54.6875 
z
" id="DejaVuSans-120"/>
     <path d="M 12.40625 8.296875 
L 28.515625 8.296875 
L 28.515625 63.921875 
L 10.984375 60.40625 
L 10.984375 69.390625 
L 28.421875 72.90625 
L 38.28125 72.90625 
L 38.28125 8.296875 
L 54.390625 8.296875 
L 54.390625 0 
L 12.40625 0 
z
" id="DejaVuSans-49"/>
    </defs>
    <g transform="translate(328.432827 359.179436)scale(0.15 -0.15)">
     <use xlink:href="#DejaVuSans-120"/>
     <use x="59.179688" xlink:href="#DejaVuSans-49"/>
    </g>
   </g>
   <g id="Line3DCollection_1">
    <path d="M 216.679222 309.104553 
L 407.395195 228.697301 
L 405.153231 75.606595 
" style="fill:none;stroke:#b0b0b0;stroke-width:0.8;"/>
    <path d="M 271.886327 317.905185 
L 459.991547 236.271658 
L 460.40538 82.389817 
" style="fill:none;stroke:#b0b0b0;stroke-width:0.8;"/>
    <path d="M 327.970688 326.845661 
L 513.36259 243.957577 
L 516.513018 89.278066 
" style="fill:none;stroke:#b0b0b0;stroke-width:0.8;"/>
    <path d="M 384.953381 335.929342 
L 567.525569 251.757543 
L 573.496169 96.2738 
" style="fill:none;stroke:#b0b0b0;stroke-width:0.8;"/>
    <path d="M 442.856165 345.159696 
L 622.498241 259.674112 
L 631.375487 103.379555 
" style="fill:none;stroke:#b0b0b0;stroke-width:0.8;"/>
    <path d="M 501.701507 354.540303 
L 678.298899 267.709918 
L 690.172279 110.597948 
" style="fill:none;stroke:#b0b0b0;stroke-width:0.8;"/>
   </g>
   <g id="xtick_1">
    <g id="line2d_2">
     <path d="M 218.322339 308.411803 
L 213.386861 310.492637 
" style="fill:none;stroke:#000000;stroke-linecap:square;stroke-width:0.8;"/>
    </g>
    <g id="text_2">
     <!-- 0.0 -->
     <defs>
      <path d="M 31.78125 66.40625 
Q 24.171875 66.40625 20.328125 58.90625 
Q 16.5 51.421875 16.5 36.375 
Q 16.5 21.390625 20.328125 13.890625 
Q 24.171875 6.390625 31.78125 6.390625 
Q 39.453125 6.390625 43.28125 13.890625 
Q 47.125 21.390625 47.125 36.375 
Q 47.125 51.421875 43.28125 58.90625 
Q 39.453125 66.40625 31.78125 66.40625 
z
M 31.78125 74.21875 
Q 44.046875 74.21875 50.515625 64.515625 
Q 56.984375 54.828125 56.984375 36.375 
Q 56.984375 17.96875 50.515625 8.265625 
Q 44.046875 -1.421875 31.78125 -1.421875 
Q 19.53125 -1.421875 13.0625 8.265625 
Q 6.59375 17.96875 6.59375 36.375 
Q 6.59375 54.828125 13.0625 64.515625 
Q 19.53125 74.21875 31.78125 74.21875 
z
" id="DejaVuSans-48"/>
      <path d="M 10.6875 12.40625 
L 21 12.40625 
L 21 0 
L 10.6875 0 
z
" id="DejaVuSans-46"/>
     </defs>
     <g transform="translate(200.143131 327.338249)scale(0.1 -0.1)">
      <use xlink:href="#DejaVuSans-48"/>
      <use x="63.623047" xlink:href="#DejaVuSans-46"/>
      <use x="95.410156" xlink:href="#DejaVuSans-48"/>
     </g>
    </g>
   </g>
   <g id="xtick_2">
    <g id="line2d_3">
     <path d="M 273.507862 317.201474 
L 268.63716 319.315252 
" style="fill:none;stroke:#000000;stroke-linecap:square;stroke-width:0.8;"/>
    </g>
    <g id="text_3">
     <!-- 0.2 -->
     <defs>
      <path d="M 19.1875 8.296875 
L 53.609375 8.296875 
L 53.609375 0 
L 7.328125 0 
L 7.328125 8.296875 
Q 12.9375 14.109375 22.625 23.890625 
Q 32.328125 33.6875 34.8125 36.53125 
Q 39.546875 41.84375 41.421875 45.53125 
Q 43.3125 49.21875 43.3125 52.78125 
Q 43.3125 58.59375 39.234375 62.25 
Q 35.15625 65.921875 28.609375 65.921875 
Q 23.96875 65.921875 18.8125 64.3125 
Q 13.671875 62.703125 7.8125 59.421875 
L 7.8125 69.390625 
Q 13.765625 71.78125 18.9375 73 
Q 24.125 74.21875 28.421875 74.21875 
Q 39.75 74.21875 46.484375 68.546875 
Q 53.21875 62.890625 53.21875 53.421875 
Q 53.21875 48.921875 51.53125 44.890625 
Q 49.859375 40.875 45.40625 35.40625 
Q 44.1875 33.984375 37.640625 27.21875 
Q 31.109375 20.453125 19.1875 8.296875 
z
" id="DejaVuSans-50"/>
     </defs>
     <g transform="translate(255.3464 336.232999)scale(0.1 -0.1)">
      <use xlink:href="#DejaVuSans-48"/>
      <use x="63.623047" xlink:href="#DejaVuSans-46"/>
      <use x="95.410156" xlink:href="#DejaVuSans-50"/>
     </g>
    </g>
   </g>
   <g id="xtick_3">
    <g id="line2d_4">
     <path d="M 329.569746 326.130728 
L 324.766511 328.278238 
" style="fill:none;stroke:#000000;stroke-linecap:square;stroke-width:0.8;"/>
    </g>
    <g id="text_4">
     <!-- 0.4 -->
     <defs>
      <path d="M 37.796875 64.3125 
L 12.890625 25.390625 
L 37.796875 25.390625 
z
M 35.203125 72.90625 
L 47.609375 72.90625 
L 47.609375 25.390625 
L 58.015625 25.390625 
L 58.015625 17.1875 
L 47.609375 17.1875 
L 47.609375 0 
L 37.796875 0 
L 37.796875 17.1875 
L 4.890625 17.1875 
L 4.890625 26.703125 
z
" id="DejaVuSans-52"/>
     </defs>
     <g transform="translate(311.427887 345.269253)scale(0.1 -0.1)">
      <use xlink:href="#DejaVuSans-48"/>
      <use x="63.623047" xlink:href="#DejaVuSans-46"/>
      <use x="95.410156" xlink:href="#DejaVuSans-52"/>
     </g>
    </g>
   </g>
   <g id="xtick_4">
    <g id="line2d_5">
     <path d="M 386.529033 335.202915 
L 381.796059 337.384971 
" style="fill:none;stroke:#000000;stroke-linecap:square;stroke-width:0.8;"/>
    </g>
    <g id="text_5">
     <!-- 0.6 -->
     <defs>
      <path d="M 33.015625 40.375 
Q 26.375 40.375 22.484375 35.828125 
Q 18.609375 31.296875 18.609375 23.390625 
Q 18.609375 15.53125 22.484375 10.953125 
Q 26.375 6.390625 33.015625 6.390625 
Q 39.65625 6.390625 43.53125 10.953125 
Q 47.40625 15.53125 47.40625 23.390625 
Q 47.40625 31.296875 43.53125 35.828125 
Q 39.65625 40.375 33.015625 40.375 
z
M 52.59375 71.296875 
L 52.59375 62.3125 
Q 48.875 64.0625 45.09375 64.984375 
Q 41.3125 65.921875 37.59375 65.921875 
Q 27.828125 65.921875 22.671875 59.328125 
Q 17.53125 52.734375 16.796875 39.40625 
Q 19.671875 43.65625 24.015625 45.921875 
Q 28.375 48.1875 33.59375 48.1875 
Q 44.578125 48.1875 50.953125 41.515625 
Q 57.328125 34.859375 57.328125 23.390625 
Q 57.328125 12.15625 50.6875 5.359375 
Q 44.046875 -1.421875 33.015625 -1.421875 
Q 20.359375 -1.421875 13.671875 8.265625 
Q 6.984375 17.96875 6.984375 36.375 
Q 6.984375 53.65625 15.1875 63.9375 
Q 23.390625 74.21875 37.203125 74.21875 
Q 40.921875 74.21875 44.703125 73.484375 
Q 48.484375 72.75 52.59375 71.296875 
z
" id="DejaVuSans-54"/>
     </defs>
     <g transform="translate(368.408717 354.450416)scale(0.1 -0.1)">
      <use xlink:href="#DejaVuSans-48"/>
      <use x="63.623047" xlink:href="#DejaVuSans-46"/>
      <use x="95.410156" xlink:href="#DejaVuSans-54"/>
     </g>
    </g>
   </g>
   <g id="xtick_5">
    <g id="line2d_6">
     <path d="M 444.407443 344.421495 
L 439.747637 346.638939 
" style="fill:none;stroke:#000000;stroke-linecap:square;stroke-width:0.8;"/>
    </g>
    <g id="text_6">
     <!-- 0.8 -->
     <defs>
      <path d="M 31.78125 34.625 
Q 24.75 34.625 20.71875 30.859375 
Q 16.703125 27.09375 16.703125 20.515625 
Q 16.703125 13.921875 20.71875 10.15625 
Q 24.75 6.390625 31.78125 6.390625 
Q 38.8125 6.390625 42.859375 10.171875 
Q 46.921875 13.96875 46.921875 20.515625 
Q 46.921875 27.09375 42.890625 30.859375 
Q 38.875 34.625 31.78125 34.625 
z
M 21.921875 38.8125 
Q 15.578125 40.375 12.03125 44.71875 
Q 8.5 49.078125 8.5 55.328125 
Q 8.5 64.0625 14.71875 69.140625 
Q 20.953125 74.21875 31.78125 74.21875 
Q 42.671875 74.21875 48.875 69.140625 
Q 55.078125 64.0625 55.078125 55.328125 
Q 55.078125 49.078125 51.53125 44.71875 
Q 48 40.375 41.703125 38.8125 
Q 48.828125 37.15625 52.796875 32.3125 
Q 56.78125 27.484375 56.78125 20.515625 
Q 56.78125 9.90625 50.3125 4.234375 
Q 43.84375 -1.421875 31.78125 -1.421875 
Q 19.734375 -1.421875 13.25 4.234375 
Q 6.78125 9.90625 6.78125 20.515625 
Q 6.78125 27.484375 10.78125 32.3125 
Q 14.796875 37.15625 21.921875 38.8125 
z
M 18.3125 54.390625 
Q 18.3125 48.734375 21.84375 45.5625 
Q 25.390625 42.390625 31.78125 42.390625 
Q 38.140625 42.390625 41.71875 45.5625 
Q 45.3125 48.734375 45.3125 54.390625 
Q 45.3125 60.0625 41.71875 63.234375 
Q 38.140625 66.40625 31.78125 66.40625 
Q 25.390625 66.40625 21.84375 63.234375 
Q 18.3125 60.0625 18.3125 54.390625 
z
" id="DejaVuSans-56"/>
     </defs>
     <g transform="translate(426.310699 363.780002)scale(0.1 -0.1)">
      <use xlink:href="#DejaVuSans-48"/>
      <use x="63.623047" xlink:href="#DejaVuSans-46"/>
      <use x="95.410156" xlink:href="#DejaVuSans-56"/>
     </g>
    </g>
   </g>
   <g id="xtick_6">
    <g id="line2d_7">
     <path d="M 503.227405 353.790041 
L 498.643787 356.04374 
" style="fill:none;stroke:#000000;stroke-linecap:square;stroke-width:0.8;"/>
    </g>
    <g id="text_7">
     <!-- 1.0 -->
     <g transform="translate(485.156352 373.261638)scale(0.1 -0.1)">
      <use xlink:href="#DejaVuSans-49"/>
      <use x="63.623047" xlink:href="#DejaVuSans-46"/>
      <use x="95.410156" xlink:href="#DejaVuSans-48"/>
     </g>
    </g>
   </g>
  </g>
  <g id="axis3d_2">
   <g id="line2d_8">
    <path d="M 698.852531 270.66983 
L 523.394526 357.998414 
" style="fill:none;stroke:#000000;stroke-linecap:square;stroke-width:0.8;"/>
   </g>
   <g id="text_8">
    <!-- x2 -->
    <g transform="translate(636.567046 336.382781)scale(0.15 -0.15)">
     <use xlink:href="#DejaVuSans-120"/>
     <use x="59.179688" xlink:href="#DejaVuSans-50"/>
    </g>
   </g>
   <g id="Line3DCollection_2">
    <path d="M 196.743922 140.088219 
L 209.840678 300.474381 
L 535.402615 352.021773 
" style="fill:none;stroke:#b0b0b0;stroke-width:0.8;"/>
    <path d="M 234.019302 126.851375 
L 245.054064 285.780863 
L 567.715631 335.939008 
" style="fill:none;stroke:#b0b0b0;stroke-width:0.8;"/>
    <path d="M 270.267493 113.979296 
L 279.345596 271.472007 
L 599.144438 320.296329 
" style="fill:none;stroke:#b0b0b0;stroke-width:0.8;"/>
    <path d="M 305.530377 101.457108 
L 312.751007 257.532904 
L 629.72484 305.075916 
" style="fill:none;stroke:#b0b0b0;stroke-width:0.8;"/>
    <path d="M 339.84759 89.270738 
L 345.304205 243.949404 
L 659.490734 290.260899 
" style="fill:none;stroke:#b0b0b0;stroke-width:0.8;"/>
    <path d="M 373.25667 77.406854 
L 377.037392 230.708071 
L 688.474233 275.835294 
" style="fill:none;stroke:#b0b0b0;stroke-width:0.8;"/>
   </g>
   <g id="xtick_7">
    <g id="line2d_9">
     <path d="M 532.677949 351.590367 
L 540.858039 352.88555 
" style="fill:none;stroke:#000000;stroke-linecap:square;stroke-width:0.8;"/>
    </g>
    <g id="text_9">
     <!-- 0.0 -->
     <g transform="translate(542.357035 368.948416)scale(0.1 -0.1)">
      <use xlink:href="#DejaVuSans-48"/>
      <use x="63.623047" xlink:href="#DejaVuSans-46"/>
      <use x="95.410156" xlink:href="#DejaVuSans-48"/>
     </g>
    </g>
   </g>
   <g id="xtick_8">
    <g id="line2d_10">
     <path d="M 565.016889 335.519486 
L 573.119062 336.778979 
" style="fill:none;stroke:#000000;stroke-linecap:square;stroke-width:0.8;"/>
    </g>
    <g id="text_10">
     <!-- 0.2 -->
     <g transform="translate(574.453175 352.741355)scale(0.1 -0.1)">
      <use xlink:href="#DejaVuSans-48"/>
      <use x="63.623047" xlink:href="#DejaVuSans-46"/>
      <use x="95.410156" xlink:href="#DejaVuSans-50"/>
     </g>
    </g>
   </g>
   <g id="xtick_9">
    <g id="line2d_11">
     <path d="M 596.471232 319.888206 
L 604.496661 321.113464 
" style="fill:none;stroke:#000000;stroke-linecap:square;stroke-width:0.8;"/>
    </g>
    <g id="text_11">
     <!-- 0.4 -->
     <g transform="translate(605.671314 336.977643)scale(0.1 -0.1)">
      <use xlink:href="#DejaVuSans-48"/>
      <use x="63.623047" xlink:href="#DejaVuSans-46"/>
      <use x="95.410156" xlink:href="#DejaVuSans-52"/>
     </g>
    </g>
   </g>
   <g id="xtick_10">
    <g id="line2d_12">
     <path d="M 627.076784 304.678734 
L 635.026631 305.871134 
" style="fill:none;stroke:#000000;stroke-linecap:square;stroke-width:0.8;"/>
    </g>
    <g id="text_12">
     <!-- 0.6 -->
     <g transform="translate(636.046994 321.639334)scale(0.1 -0.1)">
      <use xlink:href="#DejaVuSans-48"/>
      <use x="63.623047" xlink:href="#DejaVuSans-46"/>
      <use x="95.410156" xlink:href="#DejaVuSans-54"/>
     </g>
    </g>
   </g>
   <g id="xtick_11">
    <g id="line2d_13">
     <path d="M 656.867445 289.874223 
L 664.742863 291.03507 
" style="fill:none;stroke:#000000;stroke-linecap:square;stroke-width:0.8;"/>
    </g>
    <g id="text_13">
     <!-- 0.8 -->
     <g transform="translate(665.613862 306.709438)scale(0.1 -0.1)">
      <use xlink:href="#DejaVuSans-48"/>
      <use x="63.623047" xlink:href="#DejaVuSans-46"/>
      <use x="95.410156" xlink:href="#DejaVuSans-56"/>
     </g>
    </g>
   </g>
   <g id="xtick_12">
    <g id="line2d_14">
     <path d="M 685.875332 275.458713 
L 693.677461 276.589242 
" style="fill:none;stroke:#000000;stroke-linecap:square;stroke-width:0.8;"/>
    </g>
    <g id="text_14">
     <!-- 1.0 -->
     <g transform="translate(694.403798 292.171856)scale(0.1 -0.1)">
      <use xlink:href="#DejaVuSans-49"/>
      <use x="63.623047" xlink:href="#DejaVuSans-46"/>
      <use x="95.410156" xlink:href="#DejaVuSans-48"/>
     </g>
    </g>
   </g>
  </g>
  <g id="axis3d_3">
   <g id="line2d_15">
    <path d="M 698.852531 270.66983 
L 711.841122 113.258198 
" style="fill:none;stroke:#000000;stroke-linecap:square;stroke-width:0.8;"/>
   </g>
   <g id="text_15">
    <!-- y -->
    <defs>
     <path d="M 32.171875 -5.078125 
Q 28.375 -14.84375 24.75 -17.8125 
Q 21.140625 -20.796875 15.09375 -20.796875 
L 7.90625 -20.796875 
L 7.90625 -13.28125 
L 13.1875 -13.28125 
Q 16.890625 -13.28125 18.9375 -11.515625 
Q 21 -9.765625 23.484375 -3.21875 
L 25.09375 0.875 
L 2.984375 54.6875 
L 12.5 54.6875 
L 29.59375 11.921875 
L 46.6875 54.6875 
L 56.203125 54.6875 
z
" id="DejaVuSans-121"/>
    </defs>
    <g transform="translate(748.644836 194.993306)scale(0.15 -0.15)">
     <use xlink:href="#DejaVuSans-121"/>
    </g>
   </g>
   <g id="Line3DCollection_3">
    <path d="M 700.228472 253.994487 
L 388.070191 209.744317 
L 195.298138 288.909121 
" style="fill:none;stroke:#b0b0b0;stroke-width:0.8;"/>
    <path d="M 701.829161 234.59538 
L 387.676411 190.885777 
L 193.590043 269.100073 
" style="fill:none;stroke:#b0b0b0;stroke-width:0.8;"/>
    <path d="M 703.450616 214.944616 
L 387.277739 171.792919 
L 191.85905 249.025482 
" style="fill:none;stroke:#b0b0b0;stroke-width:0.8;"/>
    <path d="M 705.093242 195.037265 
L 386.874082 152.461347 
L 190.104696 228.679974 
" style="fill:none;stroke:#b0b0b0;stroke-width:0.8;"/>
    <path d="M 706.757457 174.868269 
L 386.465347 132.886557 
L 188.326506 208.058026 
" style="fill:none;stroke:#b0b0b0;stroke-width:0.8;"/>
    <path d="M 708.44369 154.432435 
L 386.051436 113.06393 
L 186.523989 187.153966 
" style="fill:none;stroke:#b0b0b0;stroke-width:0.8;"/>
    <path d="M 710.152381 133.724433 
L 385.632252 92.988729 
L 184.696644 165.961965 
" style="fill:none;stroke:#b0b0b0;stroke-width:0.8;"/>
   </g>
   <g id="xtick_13">
    <g id="line2d_16">
     <path d="M 697.623468 253.625213 
L 705.443925 254.733806 
" style="fill:none;stroke:#000000;stroke-linecap:square;stroke-width:0.8;"/>
    </g>
    <g id="text_16">
     <!-- 0.50 -->
     <defs>
      <path d="M 10.796875 72.90625 
L 49.515625 72.90625 
L 49.515625 64.59375 
L 19.828125 64.59375 
L 19.828125 46.734375 
Q 21.96875 47.46875 24.109375 47.828125 
Q 26.265625 48.1875 28.421875 48.1875 
Q 40.625 48.1875 47.75 41.5 
Q 54.890625 34.8125 54.890625 23.390625 
Q 54.890625 11.625 47.5625 5.09375 
Q 40.234375 -1.421875 26.90625 -1.421875 
Q 22.3125 -1.421875 17.546875 -0.640625 
Q 12.796875 0.140625 7.71875 1.703125 
L 7.71875 11.625 
Q 12.109375 9.234375 16.796875 8.0625 
Q 21.484375 6.890625 26.703125 6.890625 
Q 35.15625 6.890625 40.078125 11.328125 
Q 45.015625 15.765625 45.015625 23.390625 
Q 45.015625 31 40.078125 35.4375 
Q 35.15625 39.890625 26.703125 39.890625 
Q 22.75 39.890625 18.8125 39.015625 
Q 14.890625 38.140625 10.796875 36.28125 
z
" id="DejaVuSans-53"/>
     </defs>
     <g transform="translate(710.744584 260.095957)scale(0.1 -0.1)">
      <use xlink:href="#DejaVuSans-48"/>
      <use x="63.623047" xlink:href="#DejaVuSans-46"/>
      <use x="95.410156" xlink:href="#DejaVuSans-53"/>
      <use x="159.033203" xlink:href="#DejaVuSans-48"/>
     </g>
    </g>
   </g>
   <g id="xtick_14">
    <g id="line2d_17">
     <path d="M 699.206814 234.23052 
L 707.079371 235.325867 
" style="fill:none;stroke:#000000;stroke-linecap:square;stroke-width:0.8;"/>
    </g>
    <g id="text_17">
     <!-- 0.75 -->
     <defs>
      <path d="M 8.203125 72.90625 
L 55.078125 72.90625 
L 55.078125 68.703125 
L 28.609375 0 
L 18.3125 0 
L 43.21875 64.59375 
L 8.203125 64.59375 
z
" id="DejaVuSans-55"/>
     </defs>
     <g transform="translate(712.48232 240.714754)scale(0.1 -0.1)">
      <use xlink:href="#DejaVuSans-48"/>
      <use x="63.623047" xlink:href="#DejaVuSans-46"/>
      <use x="95.410156" xlink:href="#DejaVuSans-55"/>
      <use x="159.033203" xlink:href="#DejaVuSans-53"/>
     </g>
    </g>
   </g>
   <g id="xtick_15">
    <g id="line2d_18">
     <path d="M 700.810694 214.584316 
L 708.736048 215.665979 
" style="fill:none;stroke:#000000;stroke-linecap:square;stroke-width:0.8;"/>
    </g>
    <g id="text_18">
     <!-- 1.00 -->
     <g transform="translate(714.242566 221.082484)scale(0.1 -0.1)">
      <use xlink:href="#DejaVuSans-49"/>
      <use x="63.623047" xlink:href="#DejaVuSans-46"/>
      <use x="95.410156" xlink:href="#DejaVuSans-48"/>
      <use x="159.033203" xlink:href="#DejaVuSans-48"/>
     </g>
    </g>
   </g>
   <g id="xtick_16">
    <g id="line2d_19">
     <path d="M 702.435508 194.681675 
L 710.414372 195.749202 
" style="fill:none;stroke:#000000;stroke-linecap:square;stroke-width:0.8;"/>
    </g>
    <g id="text_19">
     <!-- 1.25 -->
     <g transform="translate(716.025764 201.194238)scale(0.1 -0.1)">
      <use xlink:href="#DejaVuSans-49"/>
      <use x="63.623047" xlink:href="#DejaVuSans-46"/>
      <use x="95.410156" xlink:href="#DejaVuSans-50"/>
      <use x="159.033203" xlink:href="#DejaVuSans-53"/>
     </g>
    </g>
   </g>
   <g id="xtick_17">
    <g id="line2d_20">
     <path d="M 704.08167 174.517545 
L 712.11477 175.570469 
" style="fill:none;stroke:#000000;stroke-linecap:square;stroke-width:0.8;"/>
    </g>
    <g id="text_20">
     <!-- 1.50 -->
     <g transform="translate(717.832364 181.044976)scale(0.1 -0.1)">
      <use xlink:href="#DejaVuSans-49"/>
      <use x="63.623047" xlink:href="#DejaVuSans-46"/>
      <use x="95.410156" xlink:href="#DejaVuSans-53"/>
      <use x="159.033203" xlink:href="#DejaVuSans-48"/>
     </g>
    </g>
   </g>
   <g id="xtick_18">
    <g id="line2d_21">
     <path d="M 705.749603 154.086737 
L 713.837681 155.124577 
" style="fill:none;stroke:#000000;stroke-linecap:square;stroke-width:0.8;"/>
    </g>
    <g id="text_21">
     <!-- 1.75 -->
     <g transform="translate(719.662832 160.629526)scale(0.1 -0.1)">
      <use xlink:href="#DejaVuSans-49"/>
      <use x="63.623047" xlink:href="#DejaVuSans-46"/>
      <use x="95.410156" xlink:href="#DejaVuSans-55"/>
      <use x="159.033203" xlink:href="#DejaVuSans-53"/>
     </g>
    </g>
   </g>
   <g id="xtick_19">
    <g id="line2d_22">
     <path d="M 707.439741 133.383926 
L 715.583555 134.406186 
" style="fill:none;stroke:#000000;stroke-linecap:square;stroke-width:0.8;"/>
    </g>
    <g id="text_22">
     <!-- 2.00 -->
     <g transform="translate(721.517642 139.942578)scale(0.1 -0.1)">
      <use xlink:href="#DejaVuSans-50"/>
      <use x="63.623047" xlink:href="#DejaVuSans-46"/>
      <use x="95.410156" xlink:href="#DejaVuSans-48"/>
      <use x="159.033203" xlink:href="#DejaVuSans-48"/>
     </g>
    </g>
   </g>
  </g>
  <g id="axes_1">
   <g id="line2d_23">
    <defs>
     <path d="M 0 3 
C 0.795609 3 1.55874 2.683901 2.12132 2.12132 
C 2.683901 1.55874 3 0.795609 3 0 
C 3 -0.795609 2.683901 -1.55874 2.12132 -2.12132 
C 1.55874 -2.683901 0.795609 -3 0 -3 
C -0.795609 -3 -1.55874 -2.683901 -2.12132 -2.12132 
C -2.683901 -1.55874 -3 -0.795609 -3 0 
C -3 0.795609 -2.683901 1.55874 -2.12132 2.12132 
C -1.55874 2.683901 -0.795609 3 0 3 
z
" id="m4cc0dff101" style="stroke:#000000;"/>
    </defs>
    <g clip-path="url(#pac98088254)">
     <use style="stroke:#000000;" x="528.104834" xlink:href="#m4cc0dff101" y="179.756876"/>
     <use style="stroke:#000000;" x="409.857105" xlink:href="#m4cc0dff101" y="205.301026"/>
     <use style="stroke:#000000;" x="475.784204" xlink:href="#m4cc0dff101" y="239.624042"/>
     <use style="stroke:#000000;" x="512.393925" xlink:href="#m4cc0dff101" y="229.922041"/>
     <use style="stroke:#000000;" x="410.938769" xlink:href="#m4cc0dff101" y="291.893891"/>
     <use style="stroke:#000000;" x="402.107409" xlink:href="#m4cc0dff101" y="159.43592"/>
     <use style="stroke:#000000;" x="618.672584" xlink:href="#m4cc0dff101" y="177.178225"/>
     <use style="stroke:#000000;" x="321.040292" xlink:href="#m4cc0dff101" y="236.920655"/>
     <use style="stroke:#000000;" x="475.635569" xlink:href="#m4cc0dff101" y="210.79107"/>
     <use style="stroke:#000000;" x="646.80802" xlink:href="#m4cc0dff101" y="151.007331"/>
     <use style="stroke:#000000;" x="335.860412" xlink:href="#m4cc0dff101" y="270.976369"/>
     <use style="stroke:#000000;" x="422.55534" xlink:href="#m4cc0dff101" y="224.834539"/>
     <use style="stroke:#000000;" x="332.885641" xlink:href="#m4cc0dff101" y="308.637966"/>
     <use style="stroke:#000000;" x="591.14351" xlink:href="#m4cc0dff101" y="132.486667"/>
     <use style="stroke:#000000;" x="472.691995" xlink:href="#m4cc0dff101" y="268.214502"/>
     <use style="stroke:#000000;" x="528.164599" xlink:href="#m4cc0dff101" y="239.097071"/>
     <use style="stroke:#000000;" x="503.629641" xlink:href="#m4cc0dff101" y="262.037143"/>
     <use style="stroke:#000000;" x="333.366579" xlink:href="#m4cc0dff101" y="275.066952"/>
     <use style="stroke:#000000;" x="582.0286" xlink:href="#m4cc0dff101" y="171.907065"/>
     <use style="stroke:#000000;" x="600.223382" xlink:href="#m4cc0dff101" y="165.889038"/>
     <use style="stroke:#000000;" x="332.110235" xlink:href="#m4cc0dff101" y="229.588932"/>
     <use style="stroke:#000000;" x="443.383527" xlink:href="#m4cc0dff101" y="205.276825"/>
     <use style="stroke:#000000;" x="586.362652" xlink:href="#m4cc0dff101" y="181.235065"/>
     <use style="stroke:#000000;" x="610.445853" xlink:href="#m4cc0dff101" y="170.684677"/>
     <use style="stroke:#000000;" x="344.126282" xlink:href="#m4cc0dff101" y="243.252854"/>
     <use style="stroke:#000000;" x="516.221459" xlink:href="#m4cc0dff101" y="229.314267"/>
     <use style="stroke:#000000;" x="336.848668" xlink:href="#m4cc0dff101" y="224.784452"/>
     <use style="stroke:#000000;" x="472.255514" xlink:href="#m4cc0dff101" y="226.962012"/>
     <use style="stroke:#000000;" x="398.345084" xlink:href="#m4cc0dff101" y="211.031365"/>
     <use style="stroke:#000000;" x="367.07877" xlink:href="#m4cc0dff101" y="267.387572"/>
     <use style="stroke:#000000;" x="481.188416" xlink:href="#m4cc0dff101" y="205.913278"/>
     <use style="stroke:#000000;" x="450.271609" xlink:href="#m4cc0dff101" y="186.23408"/>
     <use style="stroke:#000000;" x="593.829822" xlink:href="#m4cc0dff101" y="188.79996"/>
     <use style="stroke:#000000;" x="376.476531" xlink:href="#m4cc0dff101" y="186.101266"/>
     <use style="stroke:#000000;" x="507.488478" xlink:href="#m4cc0dff101" y="234.333375"/>
     <use style="stroke:#000000;" x="617.598419" xlink:href="#m4cc0dff101" y="171.316615"/>
     <use style="stroke:#000000;" x="354.195637" xlink:href="#m4cc0dff101" y="253.681098"/>
     <use style="stroke:#000000;" x="599.262907" xlink:href="#m4cc0dff101" y="124.177835"/>
     <use style="stroke:#000000;" x="477.05645" xlink:href="#m4cc0dff101" y="145.281987"/>
     <use style="stroke:#000000;" x="333.883156" xlink:href="#m4cc0dff101" y="265.4156"/>
     <use style="stroke:#000000;" x="592.684894" xlink:href="#m4cc0dff101" y="157.524728"/>
     <use style="stroke:#000000;" x="488.828622" xlink:href="#m4cc0dff101" y="192.211957"/>
     <use style="stroke:#000000;" x="547.09129" xlink:href="#m4cc0dff101" y="218.112802"/>
     <use style="stroke:#000000;" x="386.497255" xlink:href="#m4cc0dff101" y="184.437875"/>
     <use style="stroke:#000000;" x="316.820064" xlink:href="#m4cc0dff101" y="257.559303"/>
     <use style="stroke:#000000;" x="347.272351" xlink:href="#m4cc0dff101" y="296.464248"/>
     <use style="stroke:#000000;" x="345.087157" xlink:href="#m4cc0dff101" y="249.963337"/>
     <use style="stroke:#000000;" x="494.770408" xlink:href="#m4cc0dff101" y="189.854568"/>
     <use style="stroke:#000000;" x="476.390286" xlink:href="#m4cc0dff101" y="274.917609"/>
     <use style="stroke:#000000;" x="336.61425" xlink:href="#m4cc0dff101" y="265.189777"/>
    </g>
   </g>
   <g id="Poly3DCollection_1">
    <path clip-path="url(#pac98088254)" d="M 229.464322 300.566137 
L 394.653426 155.890078 
L 678.994165 118.530702 
L 515.428599 271.232305 
z
" style="fill:#282828;fill-opacity:0.5;"/>
   </g>
  </g>
 </g>
 <defs>
  <clipPath id="pac98088254">
   <rect height="326.16" width="669.6" x="108" y="51.84"/>
  </clipPath>
 </defs>
</svg>
